<svg preserveAspectRatio="none" width="100%" height="100%" overflow="visible" style="display: block;" viewBox="0 0 20.0011 20" fill="none" xmlns="http://www.w3.org/2000/svg">
<g id="Icon">
<path id="Vector" d="M7.93583 7.41071L13.3376 10.2009L7.93583 13.0246V7.41071ZM10.0006 17.0313C11.2506 17.0313 12.4578 17.0145 13.6222 16.981C14.7866 16.9475 15.6404 16.9122 16.1836 16.875L16.9983 16.8304C17.0058 16.8304 17.069 16.8248 17.1881 16.8136C17.3071 16.8025 17.3927 16.7913 17.4448 16.7801C17.4968 16.769 17.5843 16.7522 17.707 16.7299C17.8298 16.7076 17.9358 16.6778 18.0251 16.6406C18.1144 16.6034 18.2186 16.5551 18.3376 16.4955C18.4567 16.436 18.572 16.3635 18.6836 16.2779C18.7952 16.1923 18.9031 16.0938 19.0073 15.9821C19.0519 15.9375 19.1096 15.8687 19.1802 15.7757C19.2509 15.6827 19.3588 15.465 19.5039 15.1228C19.649 14.7805 19.7476 14.4048 19.7997 13.9955C19.8592 13.5193 19.9057 13.0115 19.9392 12.4721C19.9727 11.9327 19.9931 11.5104 20.0006 11.2054V10.7589V9.24107C20.008 8.1622 19.941 7.08333 19.7997 6.00446C19.7476 5.59524 19.6546 5.22507 19.5206 4.89397C19.3867 4.56287 19.2677 4.33408 19.1635 4.20759L19.0073 4.01786C18.9031 3.90625 18.7952 3.80766 18.6836 3.7221C18.572 3.63653 18.4567 3.56585 18.3376 3.51004C18.2186 3.45424 18.1144 3.40774 18.0251 3.37054C17.9358 3.33333 17.8298 3.30357 17.707 3.28125C17.5843 3.25893 17.495 3.24219 17.4392 3.23103C17.3834 3.21987 17.2978 3.20871 17.1825 3.19754C17.0672 3.18638 17.0058 3.1808 16.9983 3.1808C15.1308 3.03943 12.7982 2.96875 10.0006 2.96875C8.46038 2.98363 7.12295 3.00781 5.98828 3.04129C4.85361 3.07478 4.1077 3.10268 3.75056 3.125L3.20368 3.16964L2.8019 3.21429C2.53404 3.25149 2.33129 3.28869 2.19364 3.32589C2.05599 3.3631 1.86626 3.44122 1.62444 3.56027C1.38263 3.67932 1.17243 3.83185 0.993862 4.01786C0.949219 4.0625 0.891555 4.13132 0.820871 4.22433C0.750186 4.31734 0.642299 4.53497 0.49721 4.87723C0.352121 5.21949 0.253534 5.59524 0.201451 6.00446C0.141927 6.48065 0.0954241 6.98847 0.061942 7.5279C0.0284598 8.06734 0.00799851 8.48958 0.000558036 8.79464V9.24107V10.7589C-0.00688244 11.8378 0.0600818 12.9167 0.201451 13.9955C0.253534 14.4048 0.34654 14.7749 0.480469 15.106C0.614397 15.4371 0.733445 15.6659 0.837612 15.7924L0.993862 15.9821C1.09803 16.0938 1.20592 16.1923 1.31752 16.2779C1.42913 16.3635 1.54446 16.436 1.6635 16.4955C1.78255 16.5551 1.88672 16.6034 1.976 16.6406C2.06529 16.6778 2.17132 16.7076 2.29408 16.7299C2.41685 16.7522 2.50428 16.769 2.55636 16.7801C2.60845 16.7913 2.69401 16.8025 2.81306 16.8136C2.93211 16.8248 2.99535 16.8304 3.00279 16.8304C4.87035 16.9643 7.20294 17.0313 10.0006 17.0313Z" fill="var(--fill-0, white)"/>
</g>
</svg>
